<svg xmlns="http://www.w3.org/2000/svg" xmlns:xlink="http://www.w3.org/1999/xlink" viewBox="0 0 167.26 50.84"><defs><style>.cls-1,.cls-3,.cls-6{fill:none;}.cls-2{clip-path:url(#clip-path);}.cls-3,.cls-6{stroke:#000;stroke-width:1.2px;}.cls-4,.cls-5{fill:#1e90ff;}.cls-5{fill-rule:evenodd;}.cls-6{stroke-linecap:square;stroke-miterlimit:10;}</style><clipPath id="clip-path" transform="translate(0.01 -0.03)"><rect class="cls-1" width="168" height="51.84"/></clipPath></defs><g id="图层_2" data-name="图层 2"><g id="图层_1-2" data-name="图层 1"><g class="cls-2"><path class="cls-3" d="M21.81,26.91,17.3,15.3,12.8,26.91ZM.88,42.39,14.69,6.83A2.73,2.73,0,0,1,17.3,5a2.69,2.69,0,0,1,2.62,1.86L33.8,42.52a3.07,3.07,0,0,1,.2,1.1,2.73,2.73,0,0,1-2.75,2.75,2.54,2.54,0,0,1-1.91-.79,2.82,2.82,0,0,1-.62-.89l-4.8-12.28H10.67L5.86,44.69a3.14,3.14,0,0,1-.61.89,2.7,2.7,0,0,1-1.95.79,2.65,2.65,0,0,1-1.93-.79,2.72,2.72,0,0,1-.78-2,3,3,0,0,1,.29-1.23ZM43.54,10.45V24.92h7.25a7.12,7.12,0,0,0,2.81-.56,7.25,7.25,0,0,0,2.3-1.56,7.43,7.43,0,0,0,1.53-2.32A6.73,6.73,0,0,0,58,17.7a6.83,6.83,0,0,0-.58-2.81,7.19,7.19,0,0,0-1.54-2.31A7.4,7.4,0,0,0,53.59,11a7,7,0,0,0-2.8-.58ZM38.06,43.62V7.72a2.8,2.8,0,0,1,.2-1.08,2.76,2.76,0,0,1,.6-.87,2.53,2.53,0,0,1,.85-.6,3,3,0,0,1,1.1-.2h10a12.2,12.2,0,0,1,4.92,1,12.66,12.66,0,0,1,4,2.74,12.93,12.93,0,0,1,2.72,4.06,12,12,0,0,1,1,4.92A13.22,13.22,0,0,1,63.07,21a12,12,0,0,1-1.26,3,12.65,12.65,0,0,1-2.11,2.67,14.67,14.67,0,0,1-2.91,2.16l8.27,13.21a3,3,0,0,1,.44,1.5,2.73,2.73,0,0,1-.22,1.1,2.78,2.78,0,0,1-.58.86,2.67,2.67,0,0,1-.88.59A2.79,2.79,0,0,1,60.4,45L51.26,30.41H43.54V43.62a2.69,2.69,0,0,1-.79,2,2.75,2.75,0,0,1-4.69-2Zm125.72-6.56a2.64,2.64,0,0,1,1.06.22,3,3,0,0,1,.88.58,2.68,2.68,0,0,1,.59.87,2.6,2.6,0,0,1,.22,1.07,2.77,2.77,0,0,1-.86,2,20.29,20.29,0,0,1-13,4.6A19.88,19.88,0,0,1,138,40.31,19.89,19.89,0,0,1,132,25.67,19.89,19.89,0,0,1,138,11.05,19.94,19.94,0,0,1,152.66,5a20.5,20.5,0,0,1,13.28,4.84,2.53,2.53,0,0,1,.72,1.89,2.84,2.84,0,0,1-.21,1.1,2.61,2.61,0,0,1-.58.86,2.43,2.43,0,0,1-.89.57,2.67,2.67,0,0,1-1.06.21,2.78,2.78,0,0,1-1.89-.78,14.93,14.93,0,0,0-4.34-2.38,15.16,15.16,0,0,0-5-.83,14.67,14.67,0,0,0-10.79,4.49,14.57,14.57,0,0,0-4.43,10.73,14.62,14.62,0,0,0,4.43,10.77,15.29,15.29,0,0,0,20.32,1.11,2.7,2.7,0,0,1,1.59-.49Z" transform="translate(0.01 -0.03)"/></g><path class="cls-4" d="M118.57,29l1.38-.57L123.28,27l.14-.06V26l-.57-1.38-1.38-3.33L115.75,7.51l-.06-.14h-1.9L112.41,8l-3.33,1.38-.14.06v.94l.58,1.38L110.89,15l5.72,13.81.06.13Z" transform="translate(0.01 -0.03)"/><polyline class="cls-5" points="116.68 28.95 118.58 28.95 119.96 28.38 123.29 27 123.43 26.93 123.43 25.99 122.86 24.61 121.47 21.28 115.76 7.48 115.7 7.34 113.8 7.34 112.42 7.92 109.08 9.29 108.95 9.36 108.95 10.3 109.52 11.68 110.9 15.01 116.62 28.81 116.68 28.95"/><polyline class="cls-6" points="116.68 28.95 118.58 28.95 119.96 28.38 123.29 27 123.43 26.93 123.43 25.99 122.86 24.61 121.47 21.28 115.76 7.48 115.7 7.34 113.8 7.34 112.42 7.91 109.08 9.29 108.95 9.36 108.95 10.3 109.52 11.68 110.9 15.01 116.62 28.81 116.68 28.95"/><path class="cls-4" d="M115.34,14l.57-1.38,1.38-3.34,0-.14-.66-.66-3.34-1.38L99.54,1.36,98.16.79,98,.73,96.68,2.08l-.57,1.38L94.73,6.79l0,.14.66.67L98.67,9l13.81,5.71,1.37.57.14.06Z" transform="translate(0.01 -0.03)"/><polyline class="cls-5" points="114 15.29 115.35 13.94 115.92 12.56 117.3 9.23 117.35 9.09 116.68 8.42 113.35 7.04 99.55 1.32 98.17 0.75 98.03 0.7 96.69 2.05 96.11 3.43 94.73 6.76 94.68 6.9 95.35 7.56 98.68 8.94 112.48 14.66 113.86 15.23 114 15.29"/><g class="cls-2"><polyline class="cls-6" points="114 15.29 115.35 13.94 115.92 12.56 117.3 9.23 117.35 9.09 116.68 8.42 113.35 7.04 99.55 1.32 98.17 0.75 98.03 0.7 96.69 2.05 96.11 3.43 94.73 6.76 94.68 6.9 95.35 7.56 98.68 8.94 112.48 14.66 113.86 15.23 114 15.29"/></g><path class="cls-4" d="M99,9l3.33-1.39.14-.06V5.65l-.57-1.38L100.49.94,100.43.8h-1L85.68,6.52l-1.38.57L81,8.47l-.13.07v1.89l.57,1.39,1.37,3.33.07.14h.94l13.8-5.72Z" transform="translate(0.01 -0.03)"/><polyline class="cls-5" points="83.8 15.25 97.6 9.53 98.98 8.96 102.31 7.58 102.45 7.52 102.45 5.62 101.87 4.24 100.49 0.91 100.43 0.77 99.49 0.77 85.69 6.49 84.31 7.06 80.97 8.44 80.84 8.5 80.84 10.4 81.41 11.78 82.79 15.11 82.85 15.25 83.8 15.25"/><g class="cls-2"><polyline class="cls-6" points="83.8 15.25 97.6 9.53 98.98 8.96 102.31 7.58 102.45 7.52 102.45 5.62 101.87 4.24 100.49 0.91 100.43 0.77 99.49 0.77 85.69 6.49 84.31 7.06 80.97 8.44 80.84 8.5 80.84 10.4 81.41 11.78 82.79 15.11 82.85 15.25 83.8 15.25"/></g><path class="cls-4" d="M82.72,6.93l-.14,0-.67.67L76.2,21.35l-.57,1.38-1.38,3.33-.06.14,1.35,1.35,1.38.57,3.33,1.38.14.05.66-.66,5.72-13.81.57-1.38,1.39-3.33,0-.14L87.43,8.89l-1.38-.57Z" transform="translate(0.01 -0.03)"/><polyline class="cls-5" points="80.4 29.52 81.06 28.85 86.78 15.05 87.35 13.67 88.73 10.34 88.78 10.2 87.44 8.85 86.06 8.28 82.73 6.9 82.59 6.85 81.92 7.51 76.2 21.32 75.64 22.7 74.25 26.03 74.2 26.17 75.55 27.51 76.92 28.08 80.26 29.46 80.4 29.52"/><polyline class="cls-6" points="80.4 29.52 81.06 28.85 86.78 15.05 87.35 13.67 88.73 10.34 88.78 10.2 87.44 8.85 86.06 8.28 82.73 6.9 82.59 6.85 81.92 7.51 76.2 21.32 75.64 22.7 74.25 26.03 74.2 26.17 75.55 27.51 76.92 28.08 80.26 29.46 80.4 29.52"/><path class="cls-4" d="M88.74,41.38v-.94L87.36,37.1,81.64,23.3l-.57-1.38L81,21.79h-1.9l-1.38.57L74.4,23.74l-.14.06v.94l1.38,3.33,5.72,13.8.57,1.38.06.14h1.9l1.38-.57,3.33-1.38Z" transform="translate(0.01 -0.03)"/><polyline class="cls-5" points="83.9 43.36 85.28 42.79 88.61 41.4 88.75 41.34 88.75 40.4 87.36 37.07 81.65 23.27 81.08 21.89 81.02 21.75 79.11 21.75 77.74 22.32 74.4 23.7 74.27 23.76 74.27 24.71 75.65 28.04 81.36 41.84 81.94 43.22 82 43.36 83.9 43.36"/><polyline class="cls-6" points="83.9 43.36 85.28 42.79 88.61 41.4 88.75 41.34 88.75 40.4 87.36 37.07 81.65 23.27 81.08 21.89 81.02 21.75 79.11 21.75 77.74 22.32 74.4 23.7 74.27 23.76 74.27 24.71 75.65 28.04 81.36 41.84 81.94 43.22 82 43.36 83.9 43.36"/><path class="cls-4" d="M102.38,45.35,103,44l.05-.15-.67-.66L99,41.79l-13.8-5.72-1.38-.57-.14,0-1.35,1.34L81,40.12l-.57,1.38,0,.14.67.67,3.33,1.38,13.8,5.72,1.38.57.14.05L101,48.69Z" transform="translate(0.01 -0.03)"/><polyline class="cls-5" points="99.67 50 101.01 48.65 102.39 45.32 102.96 43.94 103.01 43.8 102.35 43.14 99.02 41.75 85.21 36.04 83.83 35.47 83.69 35.41 82.35 36.76 80.97 40.09 80.4 41.47 80.35 41.61 81.01 42.27 84.35 43.66 98.15 49.37 99.53 49.95 99.67 50"/><g class="cls-2"><polyline class="cls-6" points="99.67 50 101.01 48.65 102.39 45.32 102.96 43.94 103.01 43.8 102.35 43.14 99.02 41.75 85.21 36.04 83.83 35.47 83.69 35.41 82.35 36.76 80.97 40.09 80.4 41.47 80.35 41.61 81.01 42.27 84.35 43.66 98.15 49.37 99.53 49.95 99.67 50"/></g><path class="cls-4" d="M115.33,42.87l1.38-.57.14-.07v-1.9L115.47,37l-.57-1.38-.06-.14h-1l-13.8,5.72-3.33,1.38-1.38.57-.14.06v1.91l1.38,3.33.57,1.38.07.13h.94L112,44.25Z" transform="translate(0.01 -0.03)"/><polyline class="cls-5" points="98.2 49.93 112.01 44.21 115.34 42.83 116.72 42.26 116.85 42.2 116.85 40.3 115.47 36.97 114.9 35.59 114.84 35.45 113.9 35.45 100.1 41.17 96.76 42.55 95.39 43.12 95.25 43.18 95.25 45.08 96.63 48.41 97.2 49.79 97.26 49.93 98.2 49.93"/><g class="cls-2"><polyline class="cls-6" points="98.2 49.93 112.01 44.21 115.34 42.83 116.72 42.26 116.85 42.2 116.85 40.3 115.47 36.97 114.9 35.59 114.84 35.45 113.9 35.45 100.1 41.17 96.76 42.55 95.39 43.12 95.25 43.18 95.25 45.08 96.63 48.41 97.2 49.79 97.26 49.93 98.2 49.93"/></g><path class="cls-4" d="M110.25,41.88l1.38.57L115,43.83l.14.06.67-.67,1.38-3.33,5.71-13.81.58-1.38,0-.13-1.35-1.35-1.37-.57-3.34-1.38-.14-.06-.66.67-1.38,3.33L109.53,39,109,40.4l0,.14Z" transform="translate(0.01 -0.03)"/><polyline class="cls-5" points="115.11 43.85 115.77 43.18 117.15 39.85 122.87 26.05 123.44 24.67 123.49 24.53 122.15 23.19 120.77 22.61 117.44 21.23 117.3 21.18 116.64 21.85 115.25 25.18 109.54 38.98 108.96 40.36 108.91 40.5 110.26 41.84 111.64 42.42 114.97 43.8 115.11 43.85"/><polyline class="cls-6" points="115.11 43.85 115.77 43.18 117.15 39.85 122.87 26.05 123.44 24.67 123.49 24.53 122.15 23.19 120.77 22.61 117.44 21.23 117.3 21.18 116.64 21.85 115.25 25.18 109.54 38.98 108.96 40.36 108.91 40.5 110.26 41.84 111.64 42.42 114.97 43.8 115.11 43.85"/></g></g></svg>